<svg width="301" height="100" viewBox="0 0 301 100" fill="none" xmlns="http://www.w3.org/2000/svg">
<path d="M3.55189 5.27198L3.00789 0.599977H0.639893L3.03989 23H6.81589L9.21589 0.599977H6.84789L6.30389 5.23998L4.92789 20.216L3.55189 5.27198Z" fill="white"/>
<path d="M11.0596 23H13.4916V16.312L17.8436 23H20.6596L16.0196 15.896C18.7716 14.584 20.6916 11.864 20.6916 8.66398C20.6916 4.21598 17.0116 0.599977 12.5316 0.599977H11.0596V23ZM18.2596 8.66398C18.2596 11.512 16.2116 13.944 13.4916 14.424V2.96798C16.2116 3.44798 18.2596 5.81598 18.2596 8.66398Z" fill="white"/>
<path d="M34.5574 21.144C31.4214 21.144 28.7654 19.992 27.0694 18.136L44.3174 6.23198C42.3014 2.61598 38.4294 0.151978 33.9814 0.151978C27.4854 0.151978 22.2054 5.36798 22.2054 11.8C22.2054 18.232 27.1974 23.448 34.5574 23.448C38.5254 23.448 41.8534 21.816 44.1574 18.488L42.2374 17.08C40.3814 19.896 37.7254 21.144 34.5574 21.144ZM24.6374 11.8C24.6374 6.64798 28.7654 2.45598 33.9814 2.45598C36.7974 2.45598 39.3254 3.70398 41.0214 5.65598L25.7254 16.184C25.0214 14.872 24.6374 13.4 24.6374 11.8Z" fill="white"/>
<path d="M47.9484 0.599977L45.3884 23H47.7564L48.0124 20.632H51.5964L51.8844 23H54.2524L51.6924 0.599977H47.9484ZM51.3404 18.328H48.3004L49.8044 3.28798L51.3404 18.328Z" fill="white"/>
<path d="M56.0596 23H63.4196V20.696H58.4916V0.599977H56.0596V23ZM60.9876 18.392H63.4196V0.599977H60.9876V18.392Z" fill="white"/>
<path d="M65.2009 2.90398H68.7849V23H71.2169V2.90398H74.8009V0.599977H65.2009V2.90398Z" fill="white"/>
<path d="M78.6069 23H81.0389V19.544L83.8549 0.599977H81.4869L81.0069 3.47998L79.7909 14.52L78.4789 3.47998L77.9669 0.599977H75.5989L78.6069 19.544V23Z" fill="white"/>
<path d="M96.1111 12.792V10.424H91.0551V12.792H96.1111Z" fill="white"/>
<path d="M104.018 11.8C104.018 18.232 109.298 23.448 115.794 23.448C122.29 23.448 127.57 18.232 127.57 11.8C127.57 5.36798 122.29 0.151978 115.794 0.151978C109.298 0.151978 104.018 5.36798 104.018 11.8ZM106.45 11.8C106.45 6.64798 110.578 2.45598 115.794 2.45598C121.01 2.45598 125.138 6.64798 125.138 11.8C125.138 16.952 121.01 21.144 115.794 21.144C110.578 21.144 106.45 16.952 106.45 11.8Z" fill="white"/>
<path d="M134.831 0.599977H131.087L128.847 20.696H127.439V24.92H129.871V23H136.047V24.92H138.479V20.696H137.071L134.831 0.599977ZM134.415 18.36L134.671 20.696H131.215L131.503 18.328L132.943 3.41598L134.415 18.36Z" fill="white"/>
<path d="M149.411 0.599977H145.571L145.027 3.31998L141.859 20.024L142.179 3.25598V0.599977H139.747V23H143.587L144.195 19.992L147.299 3.44798L146.979 20.088V23H149.411V16.504H152.931V23H155.363V0.599977H152.931V14.2H149.411V0.599977Z" fill="white"/>
<path d="M167.528 0.599977V23H171.4L172.008 19.992L175.08 3.47998L174.76 20.088V23H177.192V0.599977H173.32L172.776 3.31998L169.64 19.992L169.96 3.25598V0.599977H167.528Z" fill="white"/>
<path d="M178.854 18.008C179.686 21.176 182.534 23.448 185.958 23.448C189.99 23.448 193.254 20.216 193.254 16.184C193.254 13.72 191.814 11.128 189.126 10.008C190.694 9.01598 191.462 7.41598 191.462 5.71998C191.462 2.67998 188.934 0.151978 185.766 0.151978C182.598 0.151978 180.07 2.67998 180.07 5.71998L182.502 5.97598V5.71998C182.502 3.92798 183.974 2.42398 185.766 2.42398C187.558 2.42398 189.03 3.92798 189.03 5.71998C189.03 7.35198 187.846 8.98398 186.15 8.98398H184.646V11.288H185.958C188.742 11.288 190.822 13.464 190.822 16.216C190.822 18.968 188.742 21.208 185.958 21.208C183.59 21.208 181.734 19.608 181.222 17.432L178.854 18.008Z" fill="white"/>
<path d="M210.352 23H212.784V0.599977H204.528V23H206.96V2.90398H210.352V23Z" fill="white"/>
<path d="M227.12 21.144C223.984 21.144 221.328 19.992 219.632 18.136L236.88 6.23198C234.864 2.61598 230.992 0.151978 226.544 0.151978C220.048 0.151978 214.768 5.36798 214.768 11.8C214.768 18.232 219.76 23.448 227.12 23.448C231.088 23.448 234.416 21.816 236.72 18.488L234.8 17.08C233.136 19.64 230.288 21.144 227.12 21.144ZM217.2 11.8C217.2 6.64798 221.328 2.45598 226.544 2.45598C229.36 2.45598 231.888 3.70398 233.584 5.65598L218.288 16.184C217.584 14.872 217.2 13.4 217.2 11.8Z" fill="white"/>
<path d="M238.591 23H241.023V18.552C245.599 18.072 249.151 14.232 249.151 9.59198C249.151 4.63198 245.087 0.599977 240.063 0.599977H238.591V23ZM246.719 9.59198C246.719 12.952 244.351 16.024 241.023 16.216V2.96798C244.415 3.25598 246.719 6.23198 246.719 9.59198Z" fill="white"/>
<path d="M252.953 23C256.921 23 260.185 19.8 260.185 15.864C260.185 13.176 258.617 10.84 256.185 9.62398C257.081 8.75998 257.529 7.54398 257.529 6.19998C257.529 3.38398 255.193 0.599977 251.897 0.599977H250.841V23H252.953ZM257.753 15.864C257.753 18.36 255.737 20.536 253.273 20.728V11.032C255.737 11.224 257.753 13.4 257.753 15.864ZM255.097 6.19998C255.097 7.51198 254.361 8.69598 253.273 9.23998V3.15998C254.361 3.73598 255.097 4.88798 255.097 6.19998Z" fill="white"/>
<path d="M264.242 0.599977H261.81V23H263.506C268.53 23 272.594 18.968 272.594 14.008C272.594 9.30398 268.914 5.43198 264.242 5.04798V0.599977ZM273.81 23H276.242V0.599977H273.81V23ZM270.162 14.008C270.162 17.464 267.666 20.536 264.242 20.664V7.35198C267.826 7.70398 270.162 10.584 270.162 14.008Z" fill="white"/>
<path d="M277.725 0.599977L287.453 11.8L277.725 23H280.893L283.453 20.056L289.053 13.432L294.653 20.056L297.245 23H300.413L290.653 11.8L300.413 0.599977H297.213L294.877 3.28798L289.053 10.136L283.261 3.28798L280.925 0.599977H277.725Z" fill="white"/>
<path d="M1.21589 61H3.64789V58.024L3.48789 50.856L7.90389 61H10.4319L5.59989 49.992L10.4319 38.6H7.93589L3.45589 49.192L3.64789 41.288V38.6H1.21589V61Z" fill="white"/>
<path d="M17.4394 38.6H13.6954L11.2634 61H13.6314L14.1754 56.328L15.5514 41.512L16.9594 56.36L17.5034 61H19.8714L17.4394 38.6Z" fill="white"/>
<path d="M24.9644 54.088L23.4924 43.08L22.8204 38.6H20.4524L23.1404 56.968H24.5164L24.0044 61H26.3724L29.2524 38.6H26.8844L26.3084 43.08L24.9644 54.088Z" fill="white"/>
<path d="M31.1221 61H32.8181C37.4581 61 41.2341 57.288 41.2341 52.712C41.2341 48.36 37.8421 44.808 33.5541 44.424V40.904H38.5461V38.6H31.1221V61ZM38.8021 52.712C38.8021 55.752 36.5621 58.504 33.5541 58.664V46.76C36.4981 46.92 38.8021 49.672 38.8021 52.712Z" fill="white"/>
<path d="M42.4866 49.8C42.4866 56.232 47.7666 61.448 54.2626 61.448C60.7586 61.448 66.0386 56.232 66.0386 49.8C66.0386 43.368 60.7586 38.152 54.2626 38.152C47.7666 38.152 42.4866 43.368 42.4866 49.8ZM44.9186 49.8C44.9186 44.648 49.0466 40.456 54.2626 40.456C59.4786 40.456 63.6066 44.648 63.6066 49.8C63.6066 54.952 59.4786 59.144 54.2626 59.144C49.0466 59.144 44.9186 54.952 44.9186 49.8Z" fill="white"/>
<path d="M70.1404 61C74.1084 61 77.3724 57.8 77.3724 53.864C77.3724 51.176 75.8044 48.84 73.3724 47.624C74.2684 46.76 74.7164 45.544 74.7164 44.2C74.7164 41.384 72.3804 38.6 69.0844 38.6H68.0284V61H70.1404ZM74.9404 53.864C74.9404 56.36 72.9244 58.536 70.4604 58.728V49.032C72.9244 49.224 74.9404 51.4 74.9404 53.864ZM72.2844 44.2C72.2844 45.512 71.5484 46.696 70.4604 47.24V41.16C71.5484 41.736 72.2844 42.888 72.2844 44.2Z" fill="white"/>
<path d="M90.8279 61C94.7959 61 98.0599 57.8 98.0599 53.864C98.0599 51.176 96.4919 48.84 94.0599 47.624C94.9559 46.76 95.4039 45.544 95.4039 44.2C95.4039 41.384 93.0679 38.6 89.7719 38.6H88.7159V61H90.8279ZM95.6279 53.864C95.6279 56.36 93.6119 58.536 91.1479 58.728V49.032C93.6119 49.224 95.6279 51.4 95.6279 53.864ZM92.9719 44.2C92.9719 45.512 92.2359 46.696 91.1479 47.24V41.16C92.2359 41.736 92.9719 42.888 92.9719 44.2Z" fill="white"/>
<path d="M99.6846 38.6V61H103.557L104.165 57.992L107.237 41.48L106.917 58.088V61H109.349V38.6H105.477L104.933 41.32L101.797 57.992L102.117 41.256V38.6H99.6846Z" fill="white"/>
<path d="M111.778 61H114.21V56.552C118.786 56.072 122.338 52.232 122.338 47.592C122.338 42.632 118.274 38.6 113.25 38.6H111.778V61ZM119.906 47.592C119.906 50.952 117.538 54.024 114.21 54.216V40.968C117.602 41.256 119.906 44.232 119.906 47.592Z" fill="white"/>
<path d="M122.17 40.904H125.754V61H128.186V40.904H131.77V38.6H122.17V40.904Z" fill="white"/>
<path d="M137.496 54.088L136.024 43.08L135.352 38.6H132.984L135.672 56.968H137.048L136.536 61H138.904L141.784 38.6H139.416L138.84 43.08L137.496 54.088Z" fill="white"/>
<path d="M144.948 38.6L142.388 61H144.756L145.012 58.632H148.596L148.884 61H151.252L148.692 38.6H144.948ZM146.804 41.288L148.34 56.328H145.3L146.804 41.288Z" fill="white"/>
<path d="M158.596 38.6H154.852L152.42 61H154.788L155.332 56.328L156.708 41.512L158.116 56.36L158.66 61H161.028L158.596 38.6Z" fill="white"/>
<path d="M165.242 38.6H162.81V61H164.506C169.53 61 173.594 56.968 173.594 52.008C173.594 47.304 169.914 43.432 165.242 43.048V38.6ZM171.162 52.008C171.162 55.464 168.666 58.536 165.242 58.664V45.352C168.826 45.704 171.162 48.584 171.162 52.008Z" fill="white"/>
<path d="M181.23 61H183.662V38.6H181.23V52.2H177.71V38.6H175.278V61H177.71V54.504H181.23V61Z" fill="white"/>
<path d="M185.643 49.8C185.643 56.232 190.923 61.448 197.419 61.448C203.915 61.448 209.195 56.232 209.195 49.8C209.195 43.368 203.915 38.152 197.419 38.152C190.923 38.152 185.643 43.368 185.643 49.8ZM188.075 49.8C188.075 44.648 192.203 40.456 197.419 40.456C202.635 40.456 206.763 44.648 206.763 49.8C206.763 54.952 202.635 59.144 197.419 59.144C192.203 59.144 188.075 54.952 188.075 49.8Z" fill="white"/>
<path d="M211.185 38.6V61H215.057L215.665 57.992L218.737 41.48L218.417 58.088V61H220.849V38.6H216.977L216.433 41.32L213.297 57.992L213.617 41.256V38.6H211.185ZM212.849 34.152V34.344C212.849 35.976 214.289 37.224 215.985 37.224C217.713 37.224 219.153 35.976 219.153 34.344V34.152H217.105V34.28C217.105 34.792 216.593 35.24 215.985 35.24C215.409 35.24 214.897 34.792 214.897 34.28V34.152H212.849Z" fill="white"/>
<path d="M1.21589 99H3.64789V94.552C8.22389 94.072 11.7759 90.232 11.7759 85.592C11.7759 80.632 7.71189 76.6 2.68789 76.6H1.21589V99ZM9.34389 85.592C9.34389 88.952 6.97589 92.024 3.64789 92.216V78.968C7.03989 79.256 9.34389 82.232 9.34389 85.592Z" fill="white"/>
<path d="M25.3699 97.144C22.2339 97.144 19.5779 95.992 17.8819 94.136L35.1299 82.232C33.1139 78.616 29.2419 76.152 24.7939 76.152C18.2979 76.152 13.0179 81.368 13.0179 87.8C13.0179 94.232 18.0099 99.448 25.3699 99.448C29.3379 99.448 32.6659 97.816 34.9699 94.488L33.0499 93.08C31.3859 95.64 28.5379 97.144 25.3699 97.144ZM15.4499 87.8C15.4499 82.648 19.5779 78.456 24.7939 78.456C27.6099 78.456 30.1379 79.704 31.8339 81.656L16.5379 92.184C15.8339 90.872 15.4499 89.4 15.4499 87.8Z" fill="white"/>
<path d="M38.7609 76.6L36.2009 99H38.5689L38.8249 96.632H42.4089L42.6969 99H45.0649L42.5049 76.6H38.7609ZM40.6169 79.288L42.1529 94.328H39.1129L40.6169 79.288Z" fill="white"/>
<path d="M52.4081 76.6H48.6641L46.2321 99H48.6001L49.1441 94.328L50.5201 79.512L51.9281 94.36L52.4721 99H54.8401L52.4081 76.6Z" fill="white"/>
<path d="M59.0541 76.6H56.6221V99H58.3181C63.3421 99 67.4061 94.968 67.4061 90.008C67.4061 85.304 63.7261 81.432 59.0541 81.048V76.6ZM64.9741 90.008C64.9741 93.464 62.4781 96.536 59.0541 96.664V83.352C62.6381 83.704 64.9741 86.584 64.9741 90.008Z" fill="white"/>
<path d="M75.0429 99H77.4749V76.6H75.0429V90.2H71.5229V76.6H69.0909V99H71.5229V92.504H75.0429V99Z" fill="white"/>
<path d="M91.3914 87.8C91.3914 91.16 92.8954 94.264 95.1994 96.376C93.9514 96.984 92.6394 97.24 91.3594 97.24C86.4314 97.24 81.8874 93.144 81.8874 87.8C81.8874 82.424 86.3354 78.36 91.3594 78.36C92.6394 78.36 93.9514 78.616 95.2314 79.192C92.9274 81.336 91.3914 84.44 91.3914 87.8ZM93.8234 87.8C93.8234 84.92 94.8474 82.264 97.1834 80.344C99.5194 82.264 100.543 84.92 100.543 87.8C100.543 90.68 99.5194 93.336 97.1834 95.256C94.8474 93.336 93.8234 90.68 93.8234 87.8ZM103.039 97.24C101.759 97.24 100.447 96.984 99.1994 96.376C101.503 94.264 103.007 91.16 103.007 87.8C103.007 84.44 101.471 81.336 99.1674 79.192C100.447 78.616 101.759 78.36 103.039 78.36C106.111 78.36 108.927 79.896 110.623 82.136L112.479 80.696C110.303 77.944 106.943 76.152 103.167 76.152C100.991 76.152 98.9434 76.76 97.1834 77.784C95.4234 76.76 93.4074 76.152 91.2314 76.152C84.7354 76.152 79.4554 81.368 79.4554 87.8C79.4554 94.232 84.7354 99.448 91.2314 99.448C93.4074 99.448 95.4234 98.872 97.1834 97.848C98.9434 98.872 100.991 99.448 103.167 99.448C107.071 99.448 110.495 97.592 112.639 94.712L110.719 93.304C108.863 95.832 106.335 97.24 103.039 97.24Z" fill="white"/>
<path d="M112.92 78.904H116.504V99H118.936V78.904H122.52V76.6H112.92V78.904Z" fill="white"/>
<path d="M124.31 76.6V99H128.182L128.79 95.992L131.862 79.48L131.542 96.088V99H133.974V76.6H130.102L129.558 79.32L126.422 95.992L126.742 79.256V76.6H124.31Z" fill="white"/>
<path d="M148.234 99C152.202 99 155.466 95.8 155.466 91.864C155.466 89.176 153.898 86.84 151.466 85.624C152.362 84.76 152.81 83.544 152.81 82.2C152.81 79.384 150.474 76.6 147.178 76.6H146.122V99H148.234ZM153.034 91.864C153.034 94.36 151.018 96.536 148.554 96.728V87.032C151.018 87.224 153.034 89.4 153.034 91.864ZM150.378 82.2C150.378 83.512 149.642 84.696 148.554 85.24V79.16C149.642 79.736 150.378 80.888 150.378 82.2Z" fill="white"/>
<path d="M175.578 99L177.594 79.16L178.618 96.056L178.842 99H181.21L179.674 76.6H175.482L174.938 81.24L173.69 95.992L172.442 81.24L171.898 76.6H167.706L166.17 99H168.538L168.762 96.056L169.786 79.16L171.802 99H175.578Z" fill="white"/>
<path d="M194.485 87.8C194.485 91.16 195.989 94.264 198.293 96.376C197.045 96.984 195.733 97.24 194.453 97.24C189.525 97.24 184.981 93.144 184.981 87.8C184.981 82.424 189.429 78.36 194.453 78.36C195.733 78.36 197.045 78.616 198.325 79.192C196.021 81.336 194.485 84.44 194.485 87.8ZM196.917 87.8C196.917 84.92 197.941 82.264 200.277 80.344C202.613 82.264 203.637 84.92 203.637 87.8C203.637 90.68 202.613 93.336 200.277 95.256C197.941 93.336 196.917 90.68 196.917 87.8ZM206.133 97.24C204.853 97.24 203.541 96.984 202.293 96.376C204.597 94.264 206.101 91.16 206.101 87.8C206.101 84.44 204.565 81.336 202.261 79.192C203.541 78.616 204.853 78.36 206.133 78.36C209.205 78.36 212.021 79.896 213.717 82.136L215.573 80.696C213.397 77.944 210.037 76.152 206.261 76.152C204.085 76.152 202.037 76.76 200.277 77.784C198.517 76.76 196.501 76.152 194.325 76.152C187.829 76.152 182.549 81.368 182.549 87.8C182.549 94.232 187.829 99.448 194.325 99.448C196.501 99.448 198.517 98.872 200.277 97.848C202.037 98.872 204.085 99.448 206.261 99.448C210.165 99.448 213.589 97.592 215.733 94.712L213.813 93.304C211.957 95.832 209.429 97.24 206.133 97.24Z" fill="white"/>
<path d="M217.435 99H219.867V96.024L219.707 88.856L224.123 99H226.651L221.819 87.992L226.651 76.6H224.155L219.675 87.192L219.867 79.288V76.6H217.435V99Z" fill="white"/>
<path d="M230.234 99C234.202 99 237.466 95.8 237.466 91.864C237.466 89.176 235.898 86.84 233.466 85.624C234.362 84.76 234.81 83.544 234.81 82.2C234.81 79.384 232.474 76.6 229.178 76.6H228.122V99H230.234ZM235.034 91.864C235.034 94.36 233.018 96.536 230.554 96.728V87.032C233.018 87.224 235.034 89.4 235.034 91.864ZM232.378 82.2C232.378 83.512 231.642 84.696 230.554 85.24V79.16C231.642 79.736 232.378 80.888 232.378 82.2Z" fill="white"/>
<path d="M250.995 97.144C247.859 97.144 245.203 95.992 243.507 94.136L260.755 82.232C258.739 78.616 254.867 76.152 250.419 76.152C243.923 76.152 238.643 81.368 238.643 87.8C238.643 94.232 243.635 99.448 250.995 99.448C254.963 99.448 258.291 97.816 260.595 94.488L258.675 93.08C257.011 95.64 254.163 97.144 250.995 97.144ZM241.075 87.8C241.075 82.648 245.203 78.456 250.419 78.456C253.235 78.456 255.763 79.704 257.459 81.656L242.163 92.184C241.459 90.872 241.075 89.4 241.075 87.8Z" fill="white"/>
<path d="M261.551 97.88C261.551 98.744 262.255 99.448 263.119 99.448C264.047 99.448 264.751 98.744 264.751 97.88C264.751 96.952 264.047 96.248 263.119 96.248C262.255 96.248 261.551 96.952 261.551 97.88Z" fill="white"/>
</svg>
