<svg width="15" height="26" viewBox="0 0 15 26" fill="none" xmlns="http://www.w3.org/2000/svg">
<path d="M13.5927 0.914329L10.3861 0.90918C6.78359 0.90918 4.45556 3.29772 4.45556 6.99459V9.80038H1.2315C0.952895 9.80038 0.727295 10.0262 0.727295 10.3048V14.3701C0.727295 14.6488 0.953157 14.8743 1.2315 14.8743H4.45556V25.1323C4.45556 25.4109 4.68117 25.6365 4.95976 25.6365H9.16628C9.44482 25.6365 9.67042 25.4106 9.67042 25.1323V14.8743H13.4402C13.7187 14.8743 13.9443 14.6488 13.9443 14.3701L13.9459 10.3048C13.9459 10.1711 13.8927 10.043 13.7983 9.94829C13.7039 9.85363 13.5751 9.80038 13.4415 9.80038H9.67042V7.42188C9.67042 6.27868 9.94286 5.69833 11.432 5.69833L13.5922 5.69756C13.8706 5.69756 14.0962 5.4717 14.0962 5.19335V1.41853C14.0962 1.14044 13.8707 0.914838 13.5927 0.914329Z" fill="white"/>
</svg>
