<svg width="30" height="23" viewBox="0 0 30 23" fill="none" xmlns="http://www.w3.org/2000/svg">
<path d="M28.4115 2.69131C27.3615 1.36099 25.4227 0.818359 21.7202 0.818359H8.27968C4.49232 0.818359 2.5207 1.396 1.47456 2.81229C0.45459 4.1932 0.45459 6.22786 0.45459 9.04386V14.4111C0.45459 19.8667 1.66477 22.6365 8.27968 22.6365H21.7202C24.9311 22.6365 26.7103 22.1579 27.8614 20.9837C29.0419 19.7798 29.5455 17.8143 29.5455 14.4111V9.04386C29.5455 6.07414 29.4667 4.02749 28.4115 2.69131ZM19.1311 12.4685L13.0278 15.8678C12.8913 15.9439 12.7421 15.9816 12.5931 15.9816C12.4244 15.9816 12.256 15.9331 12.1069 15.837C11.8261 15.6556 11.6547 15.3314 11.6547 14.9814V8.20458C11.6547 7.85536 11.8257 7.53135 12.1059 7.34992C12.3862 7.16853 12.7348 7.15612 13.0256 7.31712L19.1289 10.6946C19.4395 10.8664 19.6344 11.208 19.6348 11.5807C19.6352 11.9538 19.4412 12.2959 19.1311 12.4685Z" fill="white"/>
</svg>
